HIERARCHY
ROOT Hips
{
  OFFSET 0.0000 0.0000 0.0000
  CHANNELS 6 Xposition Yposition Zposition Zrotation Xrotation Yrotation
  JOINT LeftHip
  {
    OFFSET 3.4300 0.0000 0.0000
    CHANNELS 3 Zrotation Xrotation Yrotation
    JOINT LeftKnee
    {
      OFFSET 0.0000 -18.4700 -0.0000
      CHANNELS 3 Zrotation Xrotation Yrotation
      JOINT LeftAnkle
      {
        OFFSET -0.0000 -17.9500 0.0000
        CHANNELS 3 Zrotation Xrotation Yrotation
        End Site
        {
            OFFSET 0.0000 -3.1200 -0.0000
        }
      }
    }
  }
  JOINT RightHip
  {
    OFFSET -3.4300 0.0000 0.0000
    CHANNELS 3 Zrotation Xrotation Yrotation
    JOINT RightKnee
    {
      OFFSET 0.0000 -18.4700 0.0000
      CHANNELS 3 Zrotation Xrotation Yrotation
      JOINT RightAnkle
      {
        OFFSET 0.0000 -17.9500 0.0000
        CHANNELS 3 Zrotation Xrotation Yrotation
        End Site
        {
            OFFSET -0.0000 -3.1200 0.0000
        }
      }
    }
  }
  JOINT Chest
  {
    OFFSET 0.0000 4.5700 0.0000
    CHANNELS 3 Zrotation Xrotation Yrotation
    JOINT Chest2
    {
      OFFSET 0.0000 6.5700 -0.0000
      CHANNELS 3 Zrotation Xrotation Yrotation
      JOINT LeftCollar
      {
        OFFSET 1.0600 4.1900 1.7600
        CHANNELS 3 Zrotation Xrotation Yrotation
        JOINT LeftShoulder
        {
          OFFSET 5.8100 0.0000 0.0000
          CHANNELS 3 Zrotation Xrotation Yrotation
          JOINT LeftElbow
          {
            OFFSET 0.0000 -12.0800 0.0000
            CHANNELS 3 Zrotation Xrotation Yrotation
            JOINT LeftWrist
            {
              OFFSET 0.0000 -9.8200 0.0000
              CHANNELS 3 Zrotation Xrotation Yrotation
              End Site
              {
                  OFFSET 0.0000 -7.3700 0.0000
              }
            }
          }
        }
      }
      JOINT RightCollar
      {
        OFFSET -1.0600 4.1900 1.7600
        CHANNELS 3 Zrotation Xrotation Yrotation
        JOINT RightShoulder
        {
          OFFSET -6.0600 0.0000 -0.0000
          CHANNELS 3 Zrotation Xrotation Yrotation
          JOINT RightElbow
          {
            OFFSET 0.0000 -11.0800 0.0000
            CHANNELS 3 Zrotation Xrotation Yrotation
            JOINT RightWrist
            {
              OFFSET -0.0000 -9.8200 0.0000
              CHANNELS 3 Zrotation Xrotation Yrotation
              End Site
              {
                  OFFSET 0.0000 -7.1400 0.0000
              }
            }
          }
        }
      }
    }
    JOINT Neck
    {
      OFFSET -0.0000 10.6200 0.0000
      CHANNELS 3 Zrotation Xrotation Yrotation
      JOINT Head
      {
        OFFSET 0.0000 5.1900 0.0000
        CHANNELS 3 Zrotation Xrotation Yrotation
        End Site
        {
            OFFSET 0.0000 4.1400 0.0000
        }
      }
    }
  }
}
MOTION
Frames:	23
Frame Time:	0.033333
38.6578 42.6606 2.7678 -72.69 -1.11 30.68 78.51 -51.10 53.23 4.97 21.84 -0.89 6.66 -1.10 0.99 -57.11 2.68 -13.06 0.17 9.66 -1.34 30.74 -2.22 -0.61 34.68 22.78 -30.52 0.00 0.00 0.00 0.20 0.01 3.35 105.72 -12.25 30.02 3.51 -67.92 -13.15 26.94 -25.87 6.69 -4.16 -0.03 -4.14 -30.24 -20.13 48.48 -174.04 -76.77 113.70 -3.78 -8.64 -0.34 28.09 9.74 -22.29 18.01 -12.40 -14.16 
38.6088 42.6177 2.6562 -71.17 -2.40 32.56 77.11 -51.35 52.79 1.21 21.84 -1.58 8.89 -1.26 0.89 -57.79 -2.36 -15.00 6.83 25.41 3.72 30.63 -3.79 0.54 33.85 23.45 -31.57 0.00 0.00 0.00 0.35 0.08 2.52 105.94 -16.38 26.40 10.76 -64.81 -5.33 25.15 -26.10 6.28 -5.17 -0.02 -4.09 -29.25 -18.36 47.23 -173.74 -76.41 113.14 -2.76 -8.91 -0.26 27.67 9.95 -22.76 19.29 -12.39 -14.92 
38.5488 42.6473 2.6893 -69.07 -3.50 33.98 75.48 -49.98 53.14 -3.35 21.59 -2.72 11.15 -1.51 0.74 -56.82 -8.07 -16.07 15.19 39.66 -3.08 28.66 -2.54 0.45 32.24 24.29 -30.17 0.00 0.00 0.00 0.29 0.16 1.60 105.03 -22.71 21.56 15.44 -60.04 -0.92 24.54 -27.15 6.36 -2.97 -0.00 -3.57 -30.11 -14.34 44.45 -173.54 -74.83 115.45 -2.88 -7.95 -0.24 29.87 10.70 -24.86 18.73 -14.52 -15.72 
38.4429 42.7149 2.7977 -67.09 -3.58 34.83 72.67 -49.85 51.39 -4.04 21.34 -2.58 11.11 -1.84 0.63 -54.10 -16.36 -20.38 16.07 58.79 -8.91 31.91 -3.20 0.15 30.99 24.54 -28.78 0.00 0.00 0.00 -0.16 0.16 1.69 101.34 -25.09 16.18 13.68 -60.90 -2.73 25.17 -26.50 6.38 0.28 -0.00 -3.51 -31.43 -12.69 42.89 -173.87 -72.97 119.88 -1.62 -7.56 -0.13 28.55 11.22 -25.59 19.51 -15.78 -16.79 
38.2110 42.7561 3.0375 -64.66 -3.96 35.68 69.44 -49.59 49.07 -4.28 21.43 -2.54 10.78 -2.00 0.54 -53.33 -21.10 -30.31 22.30 75.38 -12.92 32.46 -0.64 -1.11 30.16 24.40 -28.02 0.00 0.00 0.00 -0.39 0.14 1.86 98.18 -26.36 10.81 10.51 -62.31 -6.45 26.05 -24.88 6.22 -0.14 -0.00 -3.51 -29.97 -12.67 41.52 -174.96 -73.81 122.26 -2.10 -8.22 -0.18 26.94 13.80 -26.05 20.67 -18.64 -17.08 
38.1222 42.7701 3.3573 -61.63 -5.21 36.34 64.96 -49.10 45.28 -3.36 22.52 -2.72 9.99 -2.83 0.50 -49.77 -24.20 -39.64 79.93 88.87 -72.15 32.51 2.51 -2.80 29.75 24.62 -27.81 0.00 0.00 0.00 -0.86 0.13 2.07 95.26 -24.07 7.38 5.93 -66.19 -11.21 26.48 -24.10 6.14 -0.73 0.00 -3.50 -28.28 -13.11 39.08 -176.84 -75.01 124.19 -2.93 -8.63 -0.26 26.05 14.37 -26.78 20.03 -19.87 -17.90 
38.1359 42.8251 3.6231 -59.07 -5.43 36.10 61.02 -48.07 41.97 -2.27 22.97 -1.72 9.20 -3.45 0.43 -45.93 -26.24 -51.22 -163.18 80.73 166.42 28.64 8.00 -4.33 28.73 24.43 -26.83 0.00 0.00 0.00 -0.94 0.07 2.74 91.93 -21.68 5.46 -3.24 -69.37 -20.98 26.81 -23.70 6.12 -1.30 0.00 -3.47 -27.07 -12.77 36.71 -177.69 -75.57 125.79 -3.68 -8.89 -0.34 23.50 15.41 -26.88 21.21 -20.68 -18.86 
38.0714 42.8960 3.8752 -57.15 -4.86 35.40 58.77 -46.11 41.14 -2.78 21.95 -0.63 9.61 -2.87 0.23 -40.14 -27.54 -62.16 -160.87 76.50 157.89 26.08 16.15 -5.66 27.54 23.01 -25.16 0.00 0.00 0.00 -0.97 0.04 3.12 88.99 -19.58 2.46 -12.23 -70.97 -29.92 28.34 -22.99 6.30 -1.34 0.00 -3.46 -26.17 -12.48 34.94 -178.79 -76.42 127.58 -5.10 -9.68 -0.51 20.86 20.34 -26.86 24.80 -24.21 -18.76 
38.0937 42.9759 4.0698 -54.87 -4.21 35.16 55.27 -44.82 39.77 -2.21 21.00 -0.12 9.52 -2.51 0.12 -32.65 -28.80 -70.39 -151.81 76.10 142.41 31.87 24.32 -9.59 26.20 21.53 -23.79 0.00 0.00 0.00 -1.33 0.02 3.28 85.75 -18.23 -0.13 -17.07 -72.11 -35.05 27.83 -22.75 6.12 -1.11 0.00 -3.46 -25.68 -11.63 32.56 179.81 -76.59 128.22 -6.54 -9.74 -0.66 18.79 23.55 -27.02 27.18 -26.37 -19.07 
38.1496 43.0074 4.2595 -52.03 -2.62 35.07 51.12 -43.93 38.06 -2.00 20.25 1.12 9.25 -2.58 -0.02 -25.41 -28.85 -74.15 -135.76 81.01 124.65 36.62 31.16 -12.94 23.89 19.88 -22.56 0.00 0.00 0.00 -1.63 -0.00 3.52 83.47 -16.17 -0.89 -30.28 -74.18 -48.61 27.58 -21.53 5.75 -1.47 0.01 -3.41 -23.99 -10.74 30.53 178.74 -78.04 129.70 -7.20 -9.83 -0.73 16.34 23.44 -26.92 27.97 -25.88 -20.31 
38.0910 42.9367 4.3326 -48.97 0.38 34.21 47.67 -43.40 36.48 -2.90 19.98 4.53 9.11 -2.84 -0.26 -20.15 -32.05 -71.57 -120.07 86.46 114.31 40.48 27.87 -12.53 20.09 17.40 -20.27 0.00 0.00 0.00 -1.14 -0.00 3.55 80.26 -15.95 -4.07 -28.71 -73.15 -46.81 28.95 -22.45 6.29 -1.06 0.01 -3.43 -23.53 -9.87 28.03 175.85 -78.58 130.60 -8.88 -10.40 -0.94 17.81 21.19 -28.25 24.86 -24.86 -21.52 
37.9846 42.7149 4.4538 -44.94 3.59 32.64 44.76 -42.62 36.77 -4.80 21.33 7.35 9.40 -4.03 -0.34 -15.82 -35.19 -65.66 -25.04 89.14 23.06 40.75 21.39 -9.72 15.55 15.24 -17.79 0.00 0.00 0.00 -1.03 -0.01 3.61 76.82 -14.95 -6.12 -28.48 -72.64 -46.57 29.33 -23.56 6.68 -0.33 -0.00 -3.50 -22.65 -8.34 27.15 176.53 -77.67 135.28 -11.11 -9.06 -1.05 21.91 16.91 -30.40 18.35 -23.54 -22.66 
38.1184 42.6578 4.6382 -39.85 5.41 30.54 38.91 -39.77 34.52 -5.31 20.34 9.74 9.14 -4.43 -0.42 -10.74 -34.34 -55.60 24.06 82.92 -28.85 36.92 21.34 -8.53 11.47 14.68 -16.38 0.00 0.00 0.00 -1.27 -0.03 3.82 75.31 -11.70 -3.87 -50.74 -73.77 -68.34 28.93 -22.14 6.20 -1.63 0.01 -3.30 -19.94 -6.64 26.71 179.13 -77.34 140.52 -12.06 -7.23 -0.95 20.33 13.02 -30.33 15.77 -20.51 -24.04 
38.3426 42.5401 4.8191 -35.29 6.53 28.43 34.03 -37.26 32.50 -5.70 20.19 12.07 8.83 -5.25 -0.38 -5.60 -32.17 -43.43 24.38 74.60 -35.22 31.15 23.34 -7.28 8.39 13.78 -15.51 0.00 0.00 0.00 0.23 -0.00 3.53 70.50 -9.26 -3.57 -60.29 -73.23 -77.68 29.32 -21.83 6.21 -1.78 0.02 -3.25 -19.15 -6.06 23.00 175.07 -77.74 138.27 -14.34 -5.92 -0.96 17.20 14.04 -29.74 16.69 -20.19 -24.70 
38.7516 42.4727 5.0125 -31.43 6.57 26.53 29.70 -34.27 29.93 -6.12 19.65 14.49 8.66 -6.07 -0.33 -1.47 -27.79 -33.39 25.43 66.04 -41.74 22.12 22.96 -4.77 7.11 12.71 -15.37 0.00 0.00 0.00 -1.42 -0.05 4.05 67.26 -6.77 -5.00 -68.84 -74.30 -86.46 28.43 -21.23 5.86 -2.02 0.02 -3.19 -18.48 -5.68 19.55 169.89 -77.45 137.35 -17.70 -4.40 -0.95 11.89 17.59 -28.26 19.85 -20.97 -25.22 
39.1352 42.5293 5.3512 -28.06 6.00 24.04 26.26 -30.07 27.93 -6.37 17.99 16.88 8.26 -6.39 -0.36 2.18 -21.28 -24.61 23.72 55.31 -48.24 14.23 21.43 -2.75 6.35 12.15 -15.16 0.00 0.00 0.00 -0.62 -0.03 3.87 62.07 -3.09 -6.27 -75.87 -74.65 -93.28 28.47 -21.46 5.92 -2.12 0.02 -3.19 -18.11 -6.13 18.20 166.75 -77.93 137.86 -20.52 -2.92 -0.84 7.21 19.37 -26.52 21.75 -20.49 -25.61 
39.5315 42.6360 5.6994 -24.80 4.83 20.55 23.05 -25.10 27.20 -5.65 16.07 18.71 7.47 -6.45 -0.35 4.07 -14.29 -18.11 19.19 44.92 -49.92 12.59 20.92 -2.15 5.93 12.09 -14.61 0.00 0.00 0.00 2.86 0.07 2.31 53.93 3.28 -5.01 -83.25 -73.64 -100.77 29.47 -22.16 6.33 -2.96 0.02 -3.13 -17.61 -7.91 18.00 162.01 -79.18 137.09 -22.68 -2.13 -0.77 9.31 19.86 -26.67 17.94 -21.24 -24.59 
40.0724 42.8009 5.8640 -21.51 3.53 15.40 19.32 -19.72 26.10 -4.21 13.34 22.61 6.43 -5.98 -0.38 4.22 -7.78 -14.24 15.50 35.71 -44.86 13.72 21.27 -2.27 5.90 12.47 -13.32 0.00 0.00 0.00 2.88 0.08 2.07 48.03 9.05 -3.80 -95.49 -73.02 -113.39 29.23 -21.37 6.07 -4.66 0.02 -3.14 -16.76 -11.18 17.83 155.42 -80.40 134.10 -24.29 -0.94 -0.57 15.47 18.63 -27.14 9.70 -22.91 -21.97 
40.5527 43.0615 5.9135 -18.55 2.57 8.64 17.36 -15.07 25.27 -3.96 11.99 28.46 4.93 -5.16 -0.37 3.56 -2.62 -12.61 12.60 28.76 -38.02 12.81 23.10 -2.41 5.80 12.90 -10.40 0.00 0.00 0.00 1.79 0.06 2.62 42.85 12.69 -3.76 -104.39 -72.48 -122.98 29.31 -20.01 5.72 -6.13 -0.00 -3.53 -15.72 -15.95 17.54 133.32 -83.24 114.86 -24.79 -1.00 -0.60 10.46 20.23 -22.81 10.95 -23.65 -19.57 
40.9069 43.4924 5.9672 -15.77 1.90 1.15 17.16 -14.06 22.67 1.05 19.67 28.39 -2.20 -4.51 0.11 3.27 1.99 -13.25 11.29 22.16 -34.02 10.34 24.27 -2.22 5.35 13.50 -6.43 0.00 0.00 0.00 3.71 0.11 1.34 34.16 16.69 -1.11 -103.95 -72.36 -123.79 30.23 -20.74 6.11 -5.06 -0.02 -4.06 -17.68 -22.18 18.84 99.87 -84.12 82.49 -25.87 -1.15 -0.66 8.67 22.39 -19.79 9.95 -26.52 -16.92 
41.1710 43.6983 6.0211 -13.71 0.77 -6.27 17.65 -11.45 17.81 2.28 26.76 21.61 -5.99 -6.08 -0.08 0.85 2.65 -14.19 11.00 20.15 -37.62 5.04 22.63 -0.60 5.40 14.95 -3.22 0.00 0.00 0.00 -1.60 -0.13 4.85 35.98 18.48 -0.93 -116.00 -70.74 -135.01 29.43 -19.55 5.62 -5.46 -0.04 -4.71 -16.34 -28.03 22.74 72.37 -83.57 56.70 -26.71 -1.04 -0.66 4.25 20.65 -15.48 9.88 -25.39 -14.57 
41.2371 43.5868 6.0210 -11.49 -0.32 -13.36 16.18 -5.95 9.23 -1.21 26.00 22.68 -6.18 -5.06 -0.19 -0.48 4.13 -15.50 7.63 18.14 -34.03 2.66 20.61 -0.14 4.58 16.07 -0.24 0.00 0.00 0.00 -4.27 -0.41 6.87 36.08 19.90 -0.66 -123.37 -68.86 -140.70 29.51 -18.42 5.33 -4.67 -0.07 -5.07 -15.43 -34.12 25.75 47.96 -80.85 34.29 -27.31 -1.89 -0.88 -3.59 18.86 -9.95 13.50 -23.23 -12.58 
41.3351 43.4462 5.8120 -9.33 -0.92 -18.83 14.14 -2.33 -1.98 -5.72 24.84 27.42 -4.66 -4.13 -0.29 -2.56 4.24 -15.63 5.76 16.23 -30.66 0.50 18.79 0.29 3.47 16.40 2.39 0.00 0.00 0.00 -4.46 -0.44 7.03 34.02 20.88 0.71 -125.17 -67.68 -141.46 30.22 -17.94 5.33 -1.33 -0.03 -3.97 -18.44 -38.99 26.32 41.06 -79.21 29.12 -28.03 -1.80 -0.88 -3.45 19.22 -7.96 11.89 -24.03 -10.32 
